<?xml version="1.0" encoding="utf-8"?>
<!-- Generator: Adobe Illustrator 19.0.0, SVG Export Plug-In . SVG Version: 6.00 Build 0)  -->
<svg version="1.1" id="Layer_1" xmlns="http://www.w3.org/2000/svg" xmlns:xlink="http://www.w3.org/1999/xlink" x="0px" y="0px"
	 viewBox="0 0 220 110" style="enable-background:new 0 0 220 110;" xml:space="preserve">
<style type="text/css">
	.st0{fill:none;}
	.st1{fill:#F2F2F2;}
</style>
<g id="XMLID_2_">
	<rect id="XMLID_36_" x="9" y="22" class="st0" width="42.7" height="84"/>
	<path id="XMLID_6_" class="st1" d="M16.1,88V22h10.3v56.1h21.3V88H16.1z"/>
</g>
<g id="XMLID_4_">
	<rect id="XMLID_34_" x="37" y="21.7" class="st0" width="45.3" height="73.3"/>
	<path id="XMLID_12_" class="st1" d="M53.6,87.8V31.3H40.1v-9.7h36.8v9.7H63.7v56.4H53.6z"/>
</g>
<g id="XMLID_5_">
</g>
<g id="XMLID_7_">
	<rect id="XMLID_32_" x="80.7" y="71.3" class="st0" width="130" height="20"/>
	<path id="XMLID_13_" class="st1" d="M92.8,88.6H82.7V71.3H85v15.2h7.8V88.6z"/>
	<path id="XMLID_15_" class="st1" d="M104.5,88.7h-9.8V71.4h9.6v2H97v5.2h7v2h-7v6h7.5V88.7z"/>
	<path id="XMLID_17_" class="st1" d="M117.6,73.5h-5v15.2h-2.3V73.5h-4.9v-2h12.2V73.5z"/>
	<path id="XMLID_19_" class="st1" d="M121.9,71.9c0,0.3,0,0.6-0.1,1.1c-0.1,0.4-0.2,0.8-0.3,1c-0.2,0.3-0.4,0.5-0.7,0.7
		c-0.3,0.2-0.6,0.4-0.9,0.6l-1.1-1.2c0.4-0.1,0.6-0.2,0.8-0.3c0.2-0.1,0.3-0.2,0.4-0.4c0.1-0.1,0.2-0.3,0.2-0.4c0-0.1,0-0.3,0-0.4
		H119v-2.8h2.9V71.9z"/>
	<path id="XMLID_21_" class="st1" d="M132.7,85.3c0,0.5-0.1,1-0.2,1.5c-0.2,0.4-0.4,0.8-0.8,1.1c-0.4,0.3-0.9,0.6-1.5,0.7
		c-0.6,0.2-1.5,0.3-2.4,0.3c-0.8,0-1.5-0.1-2.1-0.2c-0.6-0.2-1.2-0.3-1.5-0.5v-2.2c0.1,0.1,0.3,0.2,0.6,0.3c0.2,0.1,0.5,0.2,0.8,0.4
		s0.6,0.2,1,0.3c0.4,0.1,0.8,0.1,1.2,0.1c0.3,0,0.7,0,1-0.1c0.3,0,0.7-0.1,0.9-0.3c0.3-0.1,0.5-0.3,0.7-0.5c0.2-0.2,0.3-0.5,0.3-0.8
		c0-0.4-0.1-0.7-0.3-0.9c-0.2-0.2-0.5-0.5-0.9-0.6c-0.4-0.2-0.8-0.4-1.3-0.5c-0.5-0.2-1.1-0.4-1.6-0.7c-0.5-0.2-1-0.6-1.5-1
		c-0.5-0.4-0.7-1.1-0.7-1.9c0-1.1,0.4-1.9,1.2-2.5c0.8-0.6,1.9-0.9,3.4-0.9c0.6,0,1.2,0.1,1.9,0.2c0.6,0.2,1.1,0.3,1.4,0.4v2.2
		c-0.3-0.1-0.8-0.3-1.4-0.6c-0.6-0.2-1.3-0.4-2.1-0.4c-0.5,0-1,0.1-1.4,0.3s-0.7,0.5-0.7,0.9c0,0.3,0.1,0.6,0.2,0.8
		c0.2,0.2,0.4,0.4,0.7,0.6c0.3,0.2,0.8,0.4,1.4,0.6s1.2,0.5,1.8,0.8c0.6,0.3,1.1,0.7,1.6,1.2C132.5,83.9,132.7,84.5,132.7,85.3z"/>
	<path id="XMLID_23_" class="st1" d="M157.5,73.5h-5v15.2h-2.3V73.5h-4.9v-2h12.2V73.5z"/>
	<path id="XMLID_25_" class="st1" d="M169.3,88.7h-9.8V71.4h9.6v2h-7.3v5.2h7v2h-7v6h7.5V88.7z"/>
	<path id="XMLID_27_" class="st1" d="M185,88.6h-2.6l-1.8-5.2h-6.3l-1.9,5.2h-2.3l6.1-17.3h2.6L185,88.6z M179.9,81.4l-2.4-7.3h-0.1
		l-2.5,7.3H179.9z"/>
	<path id="XMLID_30_" class="st1" d="M203.1,88.6H201v-14h-0.1l-4.8,14h-2.2l-4.8-14H189v14h-2.1V71.4h3.2l4.8,14.4h0.1l4.8-14.4
		h3.2V88.6z"/>
</g>
<g id="XMLID_8_">
</g>
<g id="XMLID_9_">
</g>
<g id="XMLID_10_">
</g>
<g id="XMLID_11_">
</g>
<g id="XMLID_1_">
</g>
<g id="XMLID_3_">
</g>
<g id="XMLID_37_">
</g>
<g id="XMLID_38_">
</g>
<g id="XMLID_39_">
</g>
<g id="XMLID_40_">
</g>
<g id="XMLID_41_">
</g>
<g id="XMLID_42_">
</g>
<g id="XMLID_43_">
</g>
<g id="XMLID_44_">
</g>
<g id="XMLID_45_">
</g>
<g id="XMLID_46_">
</g>
<g id="XMLID_47_">
</g>
<g id="XMLID_48_">
</g>
<g id="XMLID_49_">
</g>
</svg>
