<?xml version="1.0" encoding="utf-8"?>
<!-- Generator: Adobe Illustrator 19.0.0, SVG Export Plug-In . SVG Version: 6.00 Build 0)  -->
<svg version="1.1" id="Layer_1" xmlns="http://www.w3.org/2000/svg" xmlns:xlink="http://www.w3.org/1999/xlink" x="0px" y="0px"
	 viewBox="0 0 170 150" style="enable-background:new 0 0 170 150;" xml:space="preserve">
<style type="text/css">
	.st0{fill:none;}
</style>
<g id="XMLID_2_">
	
		<rect id="XMLID_53_" x="35.9" y="16.9" transform="matrix(1 -6.434552e-003 6.434552e-003 1 -0.4276 0.5069)" class="st0" width="85.3" height="99.7"/>
	<path id="XMLID_12_" d="M45.2,100.9V16.6h13.1v71.7h27.2v12.7H45.2z"/>
</g>
<g id="XMLID_3_">
</g>
<g id="XMLID_5_">
	<rect id="XMLID_51_" x="77" y="16.9" class="st0" width="92" height="103.9"/>
	<path id="XMLID_15_" d="M98.2,101.3V29.2H80.9V16.9H128v12.4h-16.8v72.1H98.2z"/>
</g>
<g id="XMLID_6_">
</g>
<g id="XMLID_7_">
</g>
<g id="XMLID_8_">
</g>
<g id="XMLID_9_">
</g>
<g id="XMLID_10_">
</g>
<g id="XMLID_11_">
</g>
<g id="XMLID_13_">
	<rect id="XMLID_29_" x="11.6" y="103.6" class="st0" width="141.6" height="36"/>
</g>
<g id="XMLID_14_">
</g>
<g id="XMLID_16_">
	<rect id="XMLID_49_" x="12.6" y="116.1" class="st0" width="146" height="30.1"/>
	<path id="XMLID_30_" d="M25.7,137.6H15.5v-20h2.9v17.2h7.2V137.6z"/>
	<path id="XMLID_32_" d="M39,137.7H28.7v-20.1h10v2.8h-7v5.6h6.6v2.8h-6.6v6.2H39V137.7z"/>
	<path id="XMLID_34_" d="M55.3,120.3h-5.5v17.3h-2.9v-17.3h-5.5v-2.7h13.9V120.3z"/>
	<path id="XMLID_36_" d="M61,120.1c0,0.9-0.2,1.5-0.5,1.9c-0.5,0.5-1.1,0.9-2.1,0.9v-1.6c0.3,0,0.6-0.1,0.8-0.4
		c0.1-0.1,0.2-0.4,0.2-0.8v-0.5h-1.1v-2.9H61V120.1z"/>
	<path id="XMLID_38_" d="M73.1,126c-1.2-0.5-2.3-0.8-3.4-0.8c-1.5,0-2.2,0.6-2.2,1.8c0,0.5,0.6,1.1,1.7,1.6c1.6,0.8,2.7,1.4,3.2,1.8
		c1.1,0.9,1.7,2.1,1.7,3.4c0,1.5-0.6,2.7-1.8,3.4c-1,0.6-2.1,0.9-3.4,0.9c-1.6,0-3-0.2-4.2-0.7l0.3-2.8c1.3,0.6,2.6,1,3.9,1
		c0.7,0,1.3-0.2,1.8-0.6c0.4-0.3,0.6-0.8,0.6-1.4c0-0.7-0.5-1.4-1.6-2c-1-0.6-1.8-1-2.3-1.3s-0.8-0.4-0.8-0.5
		c-1.1-0.8-1.6-1.8-1.6-3.1c0-1.5,0.5-2.6,1.6-3.3c0.9-0.6,2-0.9,3.2-0.9c1.4,0,2.7,0.2,3.8,0.7L73.1,126z"/>
	<path id="XMLID_40_" d="M96.9,120.3h-5.5v17.3h-2.9v-17.3H83v-2.7h13.9V120.3z"/>
	<path id="XMLID_42_" d="M110,137.7H99.8v-20.1h10v2.8h-7v5.6h6.6v2.8h-6.6v6.2h7.3V137.7z"/>
	<path id="XMLID_44_" d="M131.6,137.7h-3.1l-2.1-5.2h-8.7l-2.1,5.2h-3.1l8.2-20.1h2.9L131.6,137.7z M125.3,129.8l-3.3-8.3l-3.3,8.3
		H125.3z"/>
	<path id="XMLID_47_" d="M155.3,137.7h-2.9v-15.6l-6.1,15.4H144l-6.3-15.4v15.6h-2.9v-20.1h3.9l6.5,16l6.3-16h3.9V137.7z"/>
</g>
<g id="XMLID_17_">
</g>
<g id="XMLID_18_">
</g>
<g id="XMLID_19_">
</g>
<g id="XMLID_20_">
</g>
<g id="XMLID_21_">
</g>
<g id="XMLID_22_">
</g>
<g id="XMLID_23_">
</g>
<g id="XMLID_24_">
</g>
<g id="XMLID_25_">
</g>
<g id="XMLID_26_">
</g>
<g id="XMLID_27_">
</g>
<g id="XMLID_28_">
</g>
<g id="XMLID_1_">
</g>
<g id="XMLID_4_">
</g>
<g id="XMLID_54_">
</g>
<g id="XMLID_55_">
</g>
<g id="XMLID_56_">
</g>
<g id="XMLID_57_">
</g>
<g id="XMLID_58_">
</g>
<g id="XMLID_59_">
</g>
<g id="XMLID_60_">
</g>
<g id="XMLID_61_">
</g>
<g id="XMLID_62_">
</g>
<g id="XMLID_63_">
</g>
<g id="XMLID_64_">
</g>
<g id="XMLID_65_">
</g>
<g id="XMLID_66_">
</g>
</svg>
